# xmcd
#
# Track frame offsets:
# 150
# 20058
# 37262
# 52454
# 75081
# 88875
# 101115
# 120127
# 151115
# 166839
# 192191
# 209549
# 222235
# 238945
#
# Disc length: 3412 seconds
#
#
# Revision: 0
# Processed by: cddbd v1.5PL3 Copyright (c) Steve Scherf et al.
# Submitted via: FreeRIP 2.12 
#
DISCID=bf0d520e
DTITLE=Ben Waters - Shakin in the Makin
DYEAR=1900
DGENRE=Blues
TTITLE0=Sticky Finger Boogie
TTITLE1=Josephine
TTITLE2=Boogie Bulldozers
TTITLE3=Long Gone Midnight
TTITLE4=Johny 'B' Goode
TTITLE5=State Street
TTITLE6=Hey Pockey Way
TTITLE7=Someone Changed the Lock
TTITLE8=Stop the Boogie
TTITLE9=Melting Pot Boogie
TTITLE10=Sweet Georgia Brown (is back in town)
TTITLE11=Something Ain't Right
TTITLE12=Shakin In the Makin
TTITLE13=Take me Home
EXTD=
EXTT0=
EXTT1=
EXTT2=
EXTT3=
EXTT4=
EXTT5=
EXTT6=
EXTT7=
EXTT8=
EXTT9=
EXTT10=
EXTT11=
EXTT12=
EXTT13=
PLAYORDER=
